<?xml version="1.0" encoding="UTF-8" standalone="no"?>
<!-- Created with Inkscape (http://www.inkscape.org/) -->

<svg width="76.570541mm" height="17.559423mm" viewBox="0 0 76.570541 17.559423" version="1.1" id="svg5"
  inkscape:version="1.1 (c68e22c387, 2021-05-23)" sodipodi:docname="logo-dark-path.svg"
  xmlns:inkscape="http://www.inkscape.org/namespaces/inkscape"
  xmlns:sodipodi="http://sodipodi.sourceforge.net/DTD/sodipodi-0.dtd" xmlns="http://www.w3.org/2000/svg"
  xmlns:svg="http://www.w3.org/2000/svg">
  <sodipodi:namedview id="namedview7" pagecolor="#ffffff" bordercolor="#999999" borderopacity="1"
    inkscape:pageshadow="0" inkscape:pageopacity="0" inkscape:pagecheckerboard="0" inkscape:document-units="mm"
    showgrid="false" inkscape:zoom="1.9628562" inkscape:cx="188.50082" inkscape:cy="111.31738"
    inkscape:window-width="1920" inkscape:window-height="1001" inkscape:window-x="-9" inkscape:window-y="-9"
    inkscape:window-maximized="1" inkscape:current-layer="text1067" fit-margin-top="0" fit-margin-left="0"
    fit-margin-right="0" fit-margin-bottom="0" />
  <defs id="defs2" />
  <g inkscape:label="Слой 1" inkscape:groupmode="layer" id="layer1" transform="translate(-81.624959,-95.617615)">
    <g id="g5662">
      <g transform="matrix(0.00367644,0,0,-0.00367644,80.995287,113.80864)" fill="#000000" stroke="none" id="g10">
        <path
          d="m 4520,4769 c -223,-99 -412,-188 -422,-199 -9,-11 -19,-39 -23,-63 -17,-111 -29,-151 -61,-199 l -35,-51 33,-34 c 18,-19 50,-48 71,-65 l 38,-31 22,21 c 36,34 115,64 181,69 33,2 73,9 88,15 14,5 141,131 282,279 l 255,270 -6,47 c -3,26 -8,63 -12,83 l -6,37 z"
          id="path2" style="fill:#a91259;fill-opacity:1" />
        <path
          d="m 2967,3242 -889,-889 117,-111 c 65,-62 120,-112 124,-111 3,0 382,420 842,932 l 836,932 -66,68 c -36,37 -68,67 -71,67 -3,0 -405,-400 -893,-888 z"
          id="path4" style="fill:#a91259;fill-opacity:1" />
        <path
          d="m 1981,3553 c -126,-75 -248,-208 -318,-347 -19,-38 -61,-137 -93,-221 -101,-263 -168,-373 -306,-504 -87,-83 -106,-94 -464,-264 C 642,2142 538,2067 422,1947 70,1578 88,1210 480,754 612,600 852,397 1005,309 c 147,-85 273,-127 409,-136 257,-17 521,147 721,447 71,107 93,153 171,360 30,79 71,174 90,210 80,145 189,248 369,348 309,173 382,225 444,319 36,54 38,73 12,97 -19,17 -23,17 -103,-4 -114,-30 -282,-37 -371,-16 -76,18 -154,54 -210,99 l -38,30 -42,-41 c -81,-79 -166,-90 -244,-32 -21,16 -95,84 -165,152 -144,140 -159,167 -136,255 10,43 30,66 176,215 l 164,167 -21,30 c -40,55 -91,176 -107,251 -22,101 -14,229 20,335 14,44 26,88 26,97 0,50 -50,98 -102,98 -13,0 -52,-17 -87,-37 z M 1852,1988 c 83,-79 174,-165 204,-193 60,-57 73,-89 50,-133 -21,-41 -68,-59 -106,-41 -31,15 -388,351 -407,384 -33,54 9,125 74,125 30,0 51,-16 185,-142 z m -467,-254 c 17,-12 110,-101 208,-196 160,-156 178,-176 177,-206 0,-45 -38,-82 -85,-82 -29,0 -46,11 -106,65 -216,198 -338,320 -344,343 -9,37 14,82 49,98 36,15 60,10 101,-22 z m -294,-286 c 24,-20 128,-119 231,-220 170,-167 187,-187 193,-224 12,-78 -8,-117 -108,-219 -73,-74 -101,-96 -134,-105 -61,-15 -112,1 -176,57 -128,114 -380,360 -393,385 -16,32 -18,105 -4,144 12,31 150,177 195,206 23,15 44,18 91,16 54,-3 68,-9 105,-40 z"
          id="path6" style="fill:#a91259;fill-opacity:1" />
        <path
          d="m 916,1260 -57,-60 118,-112 c 65,-62 149,-142 186,-178 l 68,-64 54,59 c 30,33 54,62 55,66 0,5 -237,232 -326,312 l -41,37 z"
          id="path8" style="fill:#a91259;fill-opacity:1" />
      </g>
      <g aria-label="Playnote!" id="text1067"
        style="font-size:9.87777px;line-height:1.25;letter-spacing:0px;fill:#ffffff;stroke-width:0.264583">
        <path
          d="m 100.64476,102.03356 q 2.24649,0 3.12702,0.80151 0.88054,0.79022 0.88054,2.2352 0,0.99342 -0.34996,1.69334 -0.34996,0.68862 -1.23049,1.08373 -0.88053,0.38382 -2.42711,0.38382 h -2.348096 v 1.98685 h -2.777069 q 0.09031,-2.19005 0.09031,-4.09787 0,-1.90783 -0.09031,-4.09787 h 2.777069 v 0.0113 z m -0.790227,4.01885 q 0.936977,0 1.399827,-0.0677 0.47413,-0.079 0.65475,-0.27093 0.19191,-0.19191 0.19191,-0.56445 0,-0.37253 -0.18062,-0.55315 -0.16933,-0.19191 -0.64347,-0.25965 -0.46284,-0.0677 -1.422397,-0.0677 h -1.557869 v 1.78365 z"
          style="font-size:11.2889px;font-family:'Dela Gothic One';-inkscape-font-specification:'Dela Gothic One, Normal'"
          id="path3465" />
        <path
          d="m 108.20832,105.70245 q -0.0113,0.67733 -0.0113,2.07716 0,1.68204 0.0226,2.4384 h -2.66418 l 0.0113,-1.27565 q 0.0226,-2.09973 0.0226,-3.23991 0,-1.08373 -0.0226,-3.07058 l -0.0113,-1.2192 h 2.66418 q -0.0226,1.60302 -0.0226,2.61902 0,1.12889 0.0113,1.67076 z"
          style="font-size:11.2889px;font-family:'Dela Gothic One';-inkscape-font-specification:'Dela Gothic One, Normal'"
          id="path3467" />
        <path
          d="m 116.3589,108.34405 q 0,0.38383 0.0903,0.54187 0.0903,0.15804 0.36125,0.22578 l -0.0452,1.06115 q -0.36124,0.0564 -0.63217,0.079 -0.25965,0.0226 -0.69992,0.0226 -0.97084,0 -1.28693,-0.42897 -0.31609,-0.44027 -0.31609,-1.1176 v -0.28223 q -0.32738,0.92569 -0.95956,1.37725 -0.62089,0.45155 -1.59173,0.45155 -1.12889,0 -1.70463,-0.45155 -0.56444,-0.45156 -0.56444,-1.34338 0,-0.73378 0.48542,-1.15147 0.48543,-0.41769 1.50143,-0.57573 -0.85796,-0.6096 -1.71592,-1.06116 0.67734,-0.85796 1.54658,-1.29822 0.86925,-0.45156 2.11103,-0.45156 1.73849,0 2.57387,0.75636 0.84666,0.74507 0.84666,2.30293 z m -3.18347,-2.41582 q -0.57573,0 -1.016,0.19191 -0.44026,0.19191 -0.79022,0.57573 0.67733,-0.079 1.69333,-0.079 0.41769,0 0.58703,-0.1016 0.16933,-0.1016 0.16933,-0.25964 0,-0.13547 -0.16933,-0.22578 -0.16934,-0.1016 -0.47414,-0.1016 z m -1.18533,2.50613 q 0.63218,0 1.14018,-0.23706 0.508,-0.24836 0.69991,-0.64347 v -0.29351 q -0.27093,0.13546 -0.59831,0.21449 -0.32738,0.0677 -0.79022,0.13546 l -0.40641,0.0677 q -0.63217,0.12418 -0.63217,0.42898 0,0.32737 0.58702,0.32737 z"
          style="font-size:11.2889px;font-family:'Dela Gothic One';-inkscape-font-specification:'Dela Gothic One, Normal'"
          id="path3469" />
        <path
          d="m 124.91588,104.05427 -0.25964,0.65476 q -1.07245,2.85609 -2.24649,5.50898 -0.6096,1.35467 -1.76107,2.16747 -1.15147,0.82409 -2.88996,0.79022 -0.21449,-0.93698 -0.36125,-1.46756 -0.13546,-0.51928 -0.36124,-1.04986 0.62089,0.14675 1.16276,0.14675 0.88053,0 1.39982,-0.37253 -0.4064,-1.20791 -0.95956,-2.59645 -0.55315,-1.38853 -1.60302,-3.78178 h 2.67547 q 0.13547,0.56445 0.37253,1.30951 0.23707,0.74507 0.47414,1.43369 0.0677,0.21449 0.21449,0.65476 0.15804,0.42898 0.24835,0.72249 l 0.29351,-0.89182 q 0.84667,-2.4497 1.00472,-3.22863 z"
          style="font-size:11.2889px;font-family:'Dela Gothic One';-inkscape-font-specification:'Dela Gothic One, Normal'"
          id="path3471" />
        <path
          d="m 129.77011,110.21801 q 0.0677,-1.65947 0.0677,-3.05929 0,-0.49671 -0.24835,-0.79023 -0.23707,-0.29351 -0.6096,-0.29351 -0.37254,0 -0.63218,0.33867 -0.25965,0.32738 -0.3048,0.90311 -0.0226,0.85796 -0.0226,1.2192 0,0.76765 0.0452,1.68205 h -2.69805 q 0.0903,-1.6256 0.0903,-3.07058 0,-1.44498 -0.0903,-3.09316 0.74507,0.0339 1.14018,0.0339 0.41769,0 1.14018,-0.0339 l 0.32737,1.65947 q 0.25965,-0.90311 0.8128,-1.33209 0.55316,-0.44027 1.28694,-0.44027 0.67733,0 1.17405,0.3048 0.49671,0.29351 0.74506,0.80151 0.25965,0.508 0.25965,1.14018 v 1.6256 q 0,1.50143 0.0564,2.40454 z"
          style="font-size:11.2889px;font-family:'Dela Gothic One';-inkscape-font-specification:'Dela Gothic One, Normal'"
          id="path3473" />
        <path
          d="m 136.84825,110.3309 q -1.9304,0 -2.84481,-0.88054 -0.90311,-0.89182 -0.90311,-2.3368 0,-1.41111 0.90311,-2.29164 0.91441,-0.88054 2.84481,-0.88054 1.29822,0 2.16747,0.42898 0.88053,0.41769 1.29822,1.14018 0.41769,0.7112 0.41769,1.60302 0,1.45627 -0.97085,2.3368 -0.95955,0.88054 -2.91253,0.88054 z m 0.0452,-1.91911 q 0.73378,0 1.09503,-0.34996 0.36124,-0.34996 0.36124,-0.93698 0,-0.55315 -0.36124,-0.90311 -0.36125,-0.36125 -1.09503,-0.36125 -0.73378,0 -1.07244,0.34996 -0.33867,0.34996 -0.33867,0.9144 0,0.58702 0.33867,0.93698 0.33866,0.34996 1.07244,0.34996 z"
          style="font-size:11.2889px;font-family:'Dela Gothic One';-inkscape-font-specification:'Dela Gothic One, Normal'"
          id="path3475" />
        <path
          d="m 146.6357,106.07498 q -1.03858,-0.0677 -1.89653,-0.1016 l -0.0113,1.19663 q 0,0.6096 0.25964,0.95955 0.27094,0.33867 0.94827,0.33867 0.25965,0 0.49671,-0.0452 -0.0452,0.41769 -0.0452,0.84667 0,0.2032 0.0226,0.92569 -0.49671,0.0903 -0.83537,0.11289 -0.33867,0.0226 -0.88054,0.0226 -1.3208,0 -1.87396,-0.63218 -0.54186,-0.64347 -0.54186,-1.78365 l 0.0113,-1.90782 q -0.53058,0.0226 -1.10632,0.0677 v -1.99813 q 0.58703,0 0.99343,-0.37254 0.4064,-0.37253 0.48542,-0.89182 h 3.07058 q -0.57573,0.79022 -1.27565,1.26436 h 2.17876 z"
          style="font-size:11.2889px;font-family:'Dela Gothic One';-inkscape-font-specification:'Dela Gothic One, Normal'"
          id="path3477" />
        <path
          d="m 153.28485,107.39578 h -3.68019 q 0.0903,0.49672 0.44027,0.81281 0.36125,0.3048 1.016,0.3048 0.47414,0 0.89183,-0.18063 0.41769,-0.19191 0.66604,-0.53057 0.75636,0.37253 2.00943,0.80151 -0.34996,0.79022 -1.27565,1.26435 -0.9144,0.46285 -2.39325,0.46285 -1.91911,0 -2.8448,-0.88054 -0.9144,-0.89182 -0.9144,-2.3368 0,-1.41111 0.9144,-2.29164 0.9144,-0.88054 2.8448,-0.88054 1.15147,0 1.99814,0.38382 0.84667,0.38383 1.29822,1.07245 0.45156,0.67733 0.45156,1.55787 0,0.29351 -0.0226,0.44026 z m -2.16747,-1.74977 q -0.56445,0 -0.92569,0.21448 -0.36125,0.21449 -0.508,0.58703 h 2.66418 q -0.13547,-0.36125 -0.44027,-0.57574 -0.3048,-0.22577 -0.79022,-0.22577 z"
          style="font-size:11.2889px;font-family:'Dela Gothic One';-inkscape-font-specification:'Dela Gothic One, Normal'"
          id="path3479" />
        <path
          d="m 158.1955,101.41267 q 0,0.75635 -0.0564,2.90125 -0.0226,0.33866 -0.0226,0.49671 -0.22578,1.59173 -0.28222,2.77707 h -2.08845 q -0.0564,-1.18534 -0.28222,-2.77707 l -0.0113,-0.49671 q -0.0677,-1.7385 -0.0677,-2.90125 z m -0.1016,9.03112 h -2.61902 v -2.00943 h 2.61902 z"
          style="font-size:11.2889px;font-family:'Dela Gothic One';-inkscape-font-specification:'Dela Gothic One, Normal'"
          id="path3481" />
      </g>
    </g>
  </g>
</svg>